<mxfile host="app.diagrams.net" modified="2022-04-25T11:56:44.746Z" agent="5.0 (X11; Linux x86_64) AppleWebKit/537.36 (KHTML, like Gecko) Chrome/100.0.4896.75 Safari/537.36" etag="8ozsZxIK5FKhPCJFfz8r" version="17.4.6" type="github">
  <diagram id="nGL7ZHH3GVYGpoVl97JO" name="Page-1">
    <mxGraphModel dx="1422" dy="833" grid="1" gridSize="10" guides="1" tooltips="1" connect="1" arrows="1" fold="1" page="1" pageScale="1" pageWidth="850" pageHeight="1100" math="0" shadow="0">
      <root>
        <mxCell id="0" />
        <mxCell id="1" parent="0" />
        <mxCell id="TG5Y0yn545t35H6UM6wR-1" value="" style="rounded=0;whiteSpace=wrap;html=1;" vertex="1" parent="1">
          <mxGeometry width="850" height="40" as="geometry" />
        </mxCell>
        <mxCell id="TG5Y0yn545t35H6UM6wR-2" value="" style="shape=image;html=1;verticalAlign=top;verticalLabelPosition=bottom;labelBackgroundColor=#ffffff;imageAspect=0;aspect=fixed;image=https://cdn3.iconfinder.com/data/icons/weather-260/200/night-128.png" vertex="1" parent="1">
          <mxGeometry x="10" y="6" width="28" height="28" as="geometry" />
        </mxCell>
        <mxCell id="TG5Y0yn545t35H6UM6wR-3" value="" style="verticalLabelPosition=bottom;verticalAlign=top;html=1;shape=mxgraph.basic.4_point_star_2;dx=0.8;" vertex="1" parent="1">
          <mxGeometry x="38" y="6" width="10" height="10" as="geometry" />
        </mxCell>
        <mxCell id="TG5Y0yn545t35H6UM6wR-4" value="" style="verticalLabelPosition=bottom;verticalAlign=top;html=1;shape=mxgraph.basic.4_point_star_2;dx=0.8;rotation=25;" vertex="1" parent="1">
          <mxGeometry x="38" y="20" width="6" height="6" as="geometry" />
        </mxCell>
        <mxCell id="TG5Y0yn545t35H6UM6wR-5" value="" style="verticalLabelPosition=bottom;verticalAlign=top;html=1;shape=mxgraph.basic.4_point_star_2;dx=0.8;rotation=45;" vertex="1" parent="1">
          <mxGeometry x="44" y="15.999999999999998" width="16" height="16" as="geometry" />
        </mxCell>
        <mxCell id="TG5Y0yn545t35H6UM6wR-7" value="WORKSHOPS" style="rounded=0;whiteSpace=wrap;html=1;" vertex="1" parent="1">
          <mxGeometry x="130" width="180" height="40" as="geometry" />
        </mxCell>
        <mxCell id="TG5Y0yn545t35H6UM6wR-8" value="COURSES" style="rounded=0;whiteSpace=wrap;html=1;" vertex="1" parent="1">
          <mxGeometry x="310" width="180" height="40" as="geometry" />
        </mxCell>
        <mxCell id="TG5Y0yn545t35H6UM6wR-9" value="PODCASTS" style="rounded=0;whiteSpace=wrap;html=1;" vertex="1" parent="1">
          <mxGeometry x="490" width="180" height="40" as="geometry" />
        </mxCell>
        <mxCell id="TG5Y0yn545t35H6UM6wR-10" value="BLOG" style="rounded=0;whiteSpace=wrap;html=1;" vertex="1" parent="1">
          <mxGeometry x="670" width="180" height="40" as="geometry" />
        </mxCell>
        <mxCell id="TG5Y0yn545t35H6UM6wR-11" value="&lt;h1&gt;&lt;font face=&quot;Lucida Console&quot;&gt;Luna Loves&lt;/font&gt;&lt;/h1&gt;" style="rounded=0;whiteSpace=wrap;html=1;strokeColor=none;fillColor=none;" vertex="1" parent="1">
          <mxGeometry y="40" width="850" height="50" as="geometry" />
        </mxCell>
        <mxCell id="TG5Y0yn545t35H6UM6wR-13" value="F" style="ellipse;whiteSpace=wrap;html=1;aspect=fixed;fontFamily=Lucida Console;" vertex="1" parent="1">
          <mxGeometry x="348" y="88" width="30" height="30" as="geometry" />
        </mxCell>
        <mxCell id="TG5Y0yn545t35H6UM6wR-14" value="T" style="ellipse;whiteSpace=wrap;html=1;aspect=fixed;fontFamily=Lucida Console;" vertex="1" parent="1">
          <mxGeometry x="389" y="88" width="30" height="30" as="geometry" />
        </mxCell>
        <mxCell id="TG5Y0yn545t35H6UM6wR-15" value="Y" style="ellipse;whiteSpace=wrap;html=1;aspect=fixed;fontFamily=Lucida Console;" vertex="1" parent="1">
          <mxGeometry x="429" y="88" width="30" height="30" as="geometry" />
        </mxCell>
        <mxCell id="TG5Y0yn545t35H6UM6wR-16" value="P" style="ellipse;whiteSpace=wrap;html=1;aspect=fixed;fontFamily=Lucida Console;" vertex="1" parent="1">
          <mxGeometry x="470" y="88" width="30" height="30" as="geometry" />
        </mxCell>
        <mxCell id="TG5Y0yn545t35H6UM6wR-17" value="" style="whiteSpace=wrap;html=1;aspect=fixed;fontFamily=Lucida Console;" vertex="1" parent="1">
          <mxGeometry x="84" y="468" width="200" height="200" as="geometry" />
        </mxCell>
        <mxCell id="TG5Y0yn545t35H6UM6wR-18" value="" style="whiteSpace=wrap;html=1;aspect=fixed;fontFamily=Lucida Console;" vertex="1" parent="1">
          <mxGeometry x="324" y="468" width="200" height="200" as="geometry" />
        </mxCell>
        <mxCell id="TG5Y0yn545t35H6UM6wR-19" value="" style="whiteSpace=wrap;html=1;aspect=fixed;fontFamily=Lucida Console;" vertex="1" parent="1">
          <mxGeometry x="564" y="468" width="200" height="200" as="geometry" />
        </mxCell>
        <mxCell id="TG5Y0yn545t35H6UM6wR-20" value="&quot; Derek &amp;amp; Susan - Luna Loves has been instrumental in discovering our wants and needs in our relationship, helping us forge tools for communication" style="rounded=0;whiteSpace=wrap;html=1;fontFamily=Lucida Console;" vertex="1" parent="1">
          <mxGeometry x="80" y="320" width="684" height="110" as="geometry" />
        </mxCell>
        <mxCell id="TG5Y0yn545t35H6UM6wR-23" value="&lt;font face=&quot;Courier New&quot;&gt;Events&lt;/font&gt;" style="rounded=0;whiteSpace=wrap;html=1;fontFamily=Lucida Console;strokeColor=none;fillColor=none;" vertex="1" parent="1">
          <mxGeometry x="164" y="120" width="130" height="30" as="geometry" />
        </mxCell>
        <mxCell id="TG5Y0yn545t35H6UM6wR-24" value="&lt;font face=&quot;Courier New&quot;&gt;Workbooks&lt;/font&gt;" style="rounded=0;whiteSpace=wrap;html=1;fontFamily=Lucida Console;strokeColor=none;fillColor=none;" vertex="1" parent="1">
          <mxGeometry x="294" y="120" width="131" height="30" as="geometry" />
        </mxCell>
        <mxCell id="TG5Y0yn545t35H6UM6wR-25" value="&lt;font face=&quot;Courier New&quot;&gt;Contact&lt;/font&gt;" style="rounded=0;whiteSpace=wrap;html=1;fontFamily=Lucida Console;strokeColor=none;fillColor=none;" vertex="1" parent="1">
          <mxGeometry x="425" y="120" width="132" height="30" as="geometry" />
        </mxCell>
        <mxCell id="TG5Y0yn545t35H6UM6wR-26" value="&lt;font face=&quot;Courier New&quot;&gt;Resources&lt;/font&gt;" style="rounded=0;whiteSpace=wrap;html=1;fontFamily=Lucida Console;strokeColor=none;fillColor=none;" vertex="1" parent="1">
          <mxGeometry x="557" y="120" width="133" height="30" as="geometry" />
        </mxCell>
      </root>
    </mxGraphModel>
  </diagram>
</mxfile>
